<svg width="1600" height="1600" viewBox="0 0 1600 1600" fill="#fff" fill-opacity="0.2" xmlns="http://www.w3.org/2000/svg">
<path d="M878.178 0L800 800L721.822 0H878.178Z"/>
<path d="M800 800L1040.62 33.0494L1184.55 94.1427L800 800Z"/>
<path d="M800 800L1571.03 572.8L1512.46 427.829L800 800Z"/>
<path d="M800 800L1310.4 179.034L1420.97 289.595L800 800Z"/>
<path d="M800 800L1600 878.178V721.822L800 800Z"/>
<path d="M800 800L1566.95 1040.62L1505.86 1184.55L800 800Z"/>
<path d="M800 800L1310.4 1420.97L1420.97 1310.4L800 800Z"/>
<path d="M800 800L28.9664 1027.2L87.5384 1172.17L800 800Z"/>
<path d="M800 800L1172.17 1512.46L1027.2 1571.03L800 800Z"/>
<path d="M800 800L878.178 1600H721.822L800 800Z"/>
<path d="M800 800L179.034 1310.4L289.595 1420.97L800 800Z"/>
<path d="M800 800L559.378 1566.95L415.452 1505.86L800 800Z"/>
<path d="M800 800L289.595 179.034L179.034 289.595L800 800Z"/>
<path d="M800 800L0 721.822V878.178L800 800Z"/>
<path d="M800 800L572.8 28.9669L427.829 87.5389L800 800Z"/>
<path d="M800 800L33.0489 559.379L94.1421 415.452L800 800Z"/>
</svg>
